<svg version="1.1" baseProfile="full"
xmlns="http://www.w3.org/2000/svg">

<line x1="150" y1="100" x2="150" y2="300"
style="stroke:rgb(99,99,99);stroke-width:10"/>

<rect width="300" height="100"
style="fill:rgb(0,0,255);stroke-width:1;
stroke:rgb(0,0,0)"/>

<circle cx="150" cy="350" r="50" stroke="black"
stroke-width="2" fill="red"/>

<text x="100" y="200" style="fill:black;font-size:24px">你好</text>

<!--flower-->
<ellipse cx="375" cy="470" rx="30" ry="5"
fill="green" stroke="black" stroke-width="1" transform="rotate(30,375,470)"/>
<ellipse cx="425" cy="450" rx="30" ry="5"
fill="green" stroke="black" stroke-width="1" transform="rotate(-30,425,450)"/>

<line x1="400" y1="400" x2="400" y2="500"
style="stroke:rgb(0,255,0);stroke-width:3"/>

<ellipse cx="400" cy="370" rx="5" ry="20"
fill="red" stroke="black" stroke-width="1" transform="rotate(10,400,390)"/>
<ellipse cx="400" cy="430" rx="5" ry="20"
fill="red" stroke="black" stroke-width="1" transform="rotate(10,400,410)"/>
<ellipse cx="430" cy="400" rx="20" ry="5"
fill="red" stroke="black" stroke-width="1" transform="rotate(10,410,400)"/>
<ellipse cx="370" cy="400" rx="20" ry="5"
fill="red" stroke="black" stroke-width="1" transform="rotate(10,390,400)"/>
<ellipse cx="379" cy="379" rx="20" ry="5"
fill="pink" stroke="black" stroke-width="1" transform="rotate(45,379,379)"/>
<ellipse cx="379" cy="421" rx="20" ry="5"
fill="pink" stroke="black" stroke-width="1" transform="rotate(-45,379,419)"/>
<ellipse cx="421" cy="379" rx="20" ry="5"
fill="pink" stroke="black" stroke-width="1" transform="rotate(-45,419,379)"/>
<ellipse cx="421" cy="421" rx="20" ry="5"
fill="pink" stroke="black" stroke-width="1" transform="rotate(45,419,419)"/>

<circle cx="400" cy="400" r="10" stroke="red"
stroke-width="2" fill="yellow"/>
<!--tree-->
<line x1="500" y1="300" x2="500" y2="500"
style="stroke:rgb(99,99,99);stroke-width:2"/>
<line x1="530" y1="300" x2="530" y2="500"
style="stroke:rgb(99,99,99);stroke-width:2"/>
<path d="M500 300 L400 300 L470 250 L420 250 L470 200 L450 200 
		 L515 150 L580 200 L560 200 L610 250 L560 250 L630 300 Z"
		fill="green"/>
</svg>